<svg id="Capa_1" enable-background="new 0 0 512 512" height="512" viewBox="0 0 512 512" width="512" xmlns="http://www.w3.org/2000/svg"><g><g><g><g><path d="m157 73-15-12h-37.5c-8.284 0-15 6.716-15 15v105c0 8.284 6.716 15 15 15h105c8.284 0 15-6.716 15-15v-105c0-8.284-6.716-15-15-15h-37.5z" fill="#e4c693"/></g><g><path d="m209.5 61h-37.5l-15 12v123h52.5c8.284 0 15-6.716 15-15v-105c0-8.284-6.716-15-15-15z" fill="#d09875"/></g><path d="m157 121c8.284 0 15-6.716 15-15v-45h-30v45c0 8.284 6.716 15 15 15z" fill="#ffb655"/><g><path d="m157 61v60c8.284 0 15-6.716 15-15v-45z" fill="#ff7c48"/></g></g><g><path d="m89.5 186-15-5h-37.5c-8.284 0-15 6.716-15 15v135h135c8.284 0 15-6.716 15-15v-120c0-8.284-6.716-15-15-15h-52.5z" fill="#e4c693"/></g><g><path d="m157 181h-52.5l-15 5v145h67.5c8.284 0 15-6.716 15-15v-120c0-8.284-6.716-15-15-15z" fill="#d09875"/></g><g><path d="m224.5 194-15-13h-52.5v150h120c8.284 0 15-6.716 15-15v-120c0-8.284-6.716-15-15-15h-37.5z" fill="#e4c693"/></g><g><path d="m277 181h-37.5l-15 13v137h52.5c8.284 0 15-6.716 15-15v-120c0-8.284-6.716-15-15-15z" fill="#d09875"/></g><path d="m224.5 241c8.284 0 15-6.716 15-15v-45h-30v45c0 8.284 6.716 15 15 15z" fill="#ffb655"/><g><path d="m224.5 181v60c8.284 0 15-6.716 15-15v-45z" fill="#ff7c48"/></g><path d="m89.5 241c8.284 0 15-6.716 15-15v-45h-30v45c0 8.284 6.716 15 15 15z" fill="#ffb655"/><g><path d="m89.5 181v60c8.284 0 15-6.716 15-15v-45z" fill="#ff7c48"/></g></g><path d="m322 411h-307c-8.284 0-15-6.716-15-15v-80c0-8.284 6.716-15 15-15h322v95c0 8.284-6.716 15-15 15z" fill="#ffb655"/><path d="m337 301h-81v110h66c8.284 0 15-6.716 15-15z" fill="#ff7c48"/><circle cx="95" cy="396" fill="#7f6d67" r="55"/><path d="m95 341v110c30.327 0 55-24.673 55-55s-24.673-55-55-55z" fill="#635550"/><circle cx="95" cy="396" fill="#fff5f5" r="25"/><path d="m120 396c0-13.785-11.215-25-25-25v50c13.785 0 25-11.215 25-25z" fill="#e2dff4"/><path d="m512 271-130-130h-45c-8.284 0-15 6.716-15 15v255h175c8.284 0 15-6.716 15-15v-65l-20-15 20-15z" fill="#e2dff4"/><path d="m509.862 248.282-60-100c-2.711-4.517-7.593-7.282-12.862-7.282h-55v115c0 8.284 6.716 15 15 15h115v-15c0-2.719-.739-5.386-2.138-7.718z" fill="#8bb9ff"/><path d="m477 301c-8.284 0-15 6.716-15 15s6.716 15 15 15h35v-30z" fill="#ff7c48"/><circle cx="417" cy="396" fill="#7f6d67" r="55"/><path d="m417 341v110c30.327 0 55-24.673 55-55s-24.673-55-55-55z" fill="#635550"/><circle cx="417" cy="396" fill="#fff5f5" r="25"/><path d="m442 396c0-13.785-11.215-25-25-25v50c13.785 0 25-11.215 25-25z" fill="#e2dff4"/></g></svg>